<svg xmlns="http://www.w3.org/2000/svg" viewBox="0 0 800 450" font-family="Segoe UI, Arial, sans-serif">
<title>Four-Stroke Cycle</title>
<desc>Intake, compression, power and exhaust strokes showing piston direction, crank angle and intake/exhaust valve states.</desc>
<defs><marker id="fsc-as8" viewBox="0 0 10 10" refX="5" refY="5" markerWidth="8" markerHeight="8" markerUnits="userSpaceOnUse" orient="auto"><path d="M0,0.8 L10,5 L0,9.2 z" fill="#9aa0a6"/></marker><marker id="fsc-at11" viewBox="0 0 10 10" refX="5" refY="5" markerWidth="11" markerHeight="11" markerUnits="userSpaceOnUse" orient="auto"><path d="M0,0.8 L10,5 L0,9.2 z" fill="#e8eaed"/></marker><marker id="fsc-ab10" viewBox="0 0 10 10" refX="5" refY="5" markerWidth="10" markerHeight="10" markerUnits="userSpaceOnUse" orient="auto"><path d="M0,0.8 L10,5 L0,9.2 z" fill="#8ab4f8"/></marker><marker id="fsc-ab8" viewBox="0 0 10 10" refX="5" refY="5" markerWidth="8" markerHeight="8" markerUnits="userSpaceOnUse" orient="auto"><path d="M0,0.8 L10,5 L0,9.2 z" fill="#8ab4f8"/></marker><marker id="fsc-aa7" viewBox="0 0 10 10" refX="5" refY="5" markerWidth="7" markerHeight="7" markerUnits="userSpaceOnUse" orient="auto"><path d="M0,0.8 L10,5 L0,9.2 z" fill="#fbbc04"/></marker><marker id="fsc-an8" viewBox="0 0 10 10" refX="5" refY="5" markerWidth="8" markerHeight="8" markerUnits="userSpaceOnUse" orient="auto"><path d="M0,0.8 L10,5 L0,9.2 z" fill="#bdc1c6"/></marker><marker id="fsc-an10" viewBox="0 0 10 10" refX="5" refY="5" markerWidth="10" markerHeight="10" markerUnits="userSpaceOnUse" orient="auto"><path d="M0,0.8 L10,5 L0,9.2 z" fill="#bdc1c6"/></marker></defs>
<rect x="0.75" y="0.75" width="798.5" height="448.5" rx="14" fill="#16181d" stroke="#3a3f47" stroke-width="1.5"/>
<rect x="24" y="21" width="4" height="21" rx="2" fill="#8ab4f8"/>
<text x="38" y="38" font-size="18" fill="#e8eaed" font-weight="600">Four-Stroke Cycle</text>
<text x="38" y="57" font-size="12" fill="#9aa0a6">Four strokes = two crankshaft revolutions (720&#176;); the camshaft turns at half crankshaft speed.</text>
<rect x="24" y="70" width="179" height="364" rx="10" fill="#1c1f25" stroke="#2c3037" stroke-width="1"/>
<circle cx="46" cy="92" r="11" fill="#8ab4f8"/>
<text x="46" y="96.3" font-size="12" fill="#16181d" text-anchor="middle" font-weight="700">1</text>
<text x="64" y="97" font-size="15" fill="#e8eaed" font-weight="600">Intake</text>
<text x="38" y="119" font-size="12" fill="#9aa0a6">0&#8211;180&#176; &#183; piston down</text>
<rect x="77.5" y="174" width="72" height="47.5" fill="#8ab4f8" fill-opacity="0.16"/>
<circle cx="113.5" cy="335" r="34" fill="#2d3139" stroke="#5f6368" stroke-width="1.2"/>
<circle cx="113.5" cy="335" r="7" fill="#5f6368"/>
<line x1="113.5" y1="238.5" x2="137.1" y2="346" stroke="#80868b" stroke-width="9" stroke-linecap="round"/>
<circle cx="137.1" cy="346" r="6.5" fill="#bdc1c6"/>
<rect x="78.5" y="221.5" width="70" height="30" rx="3" fill="#3c4047" stroke="#80868b" stroke-width="1"/>
<line x1="78.5" y1="227.5" x2="148.5" y2="227.5" stroke="#1c1f25" stroke-width="2"/>
<line x1="78.5" y1="232.5" x2="148.5" y2="232.5" stroke="#1c1f25" stroke-width="2"/>
<circle cx="113.5" cy="238.5" r="5" fill="#bdc1c6"/>
<rect x="70.5" y="174" width="7" height="110" fill="#2d3139" stroke="#5f6368" stroke-width="1"/>
<rect x="149.5" y="174" width="7" height="110" fill="#2d3139" stroke="#5f6368" stroke-width="1"/>
<rect x="55.5" y="150" width="116" height="25" rx="3" fill="#2d3139" stroke="#5f6368" stroke-width="1"/>
<polygon points="51.5,131 71.5,131 101.5,174 81.5,174" fill="#1c1f25"/>
<polygon points="51.5,131 71.5,131 101.5,174 81.5,174" fill="#8ab4f8" fill-opacity="0.22"/>
<line x1="51.5" y1="131" x2="81.5" y2="174" stroke="#5f6368" stroke-width="1.2"/>
<line x1="71.5" y1="131" x2="101.5" y2="174" stroke="#5f6368" stroke-width="1.2"/>
<rect x="90" y="135" width="3" height="47" fill="#bdc1c6"/>
<line x1="84.5" y1="135" x2="98.5" y2="135" stroke="#bdc1c6" stroke-width="2.5" stroke-linecap="round"/>
<polygon points="84.5,180 98.5,180 102.5,186 80.5,186" fill="#bdc1c6"/>
<polygon points="175.5,131 155.5,131 125.5,174 145.5,174" fill="#1c1f25"/>
<line x1="175.5" y1="131" x2="145.5" y2="174" stroke="#5f6368" stroke-width="1.2"/>
<line x1="155.5" y1="131" x2="125.5" y2="174" stroke="#5f6368" stroke-width="1.2"/>
<rect x="134" y="125" width="3" height="47" fill="#bdc1c6"/>
<line x1="128.5" y1="125" x2="142.5" y2="125" stroke="#bdc1c6" stroke-width="2.5" stroke-linecap="round"/>
<polygon points="128.5,170 142.5,170 146.5,176 124.5,176" fill="#bdc1c6"/>
<text x="46.5" y="137" font-size="12" fill="#9aa0a6" text-anchor="end" font-weight="600">IN</text>
<text x="180.5" y="137" font-size="12" fill="#9aa0a6" font-weight="600">EX</text>
<rect x="111.5" y="124" width="4" height="6" fill="#bdc1c6"/>
<rect x="108.5" y="129" width="10" height="20" rx="2" fill="#dadce0"/>
<rect x="106.5" y="148" width="14" height="24" rx="1" fill="#80868b"/>
<rect x="112" y="172" width="3" height="5" fill="#bdc1c6"/>
<path d="M 152.5,357.5 A 45 45 0 0 1 87.7,371.9" fill="none" stroke="#9aa0a6" stroke-width="1.5" marker-end="url(#fsc-as8)"/>
<path d="M177.5,200 L177.5,250" fill="none" stroke="#e8eaed" stroke-width="2.5" stroke-linecap="round" stroke-linejoin="round" marker-end="url(#fsc-at11)"/>
<path d="M53.5,120 L78.5,156" fill="none" stroke="#8ab4f8" stroke-width="2.5" stroke-linecap="round" stroke-linejoin="round" marker-end="url(#fsc-ab10)"/>
<path d="M93.5,192 L105.5,212" fill="none" stroke="#8ab4f8" stroke-width="2" stroke-linecap="round" stroke-linejoin="round" marker-end="url(#fsc-ab8)"/>
<text x="32" y="241.5" font-size="12" fill="#9aa0a6">Piston</text>
<text x="32" y="292" font-size="12" fill="#9aa0a6">Rod</text>
<text x="32" y="339" font-size="12" fill="#9aa0a6">Crank</text>
<text x="38" y="402" font-size="12" fill="#e8eaed"><tspan fill="#e8eaed">Intake valve: </tspan><tspan fill="#81c995" font-weight="600">OPEN</tspan></text>
<text x="38" y="421" font-size="12" fill="#e8eaed"><tspan fill="#e8eaed">Exhaust valve: </tspan><tspan fill="#9aa0a6" font-weight="600">CLOSED</tspan></text>
<rect x="215" y="70" width="179" height="364" rx="10" fill="#1c1f25" stroke="#2c3037" stroke-width="1"/>
<circle cx="237" cy="92" r="11" fill="#8ab4f8"/>
<text x="237" y="96.3" font-size="12" fill="#16181d" text-anchor="middle" font-weight="700">2</text>
<text x="255" y="97" font-size="15" fill="#e8eaed" font-weight="600">Compression</text>
<text x="229" y="119" font-size="12" fill="#9aa0a6">180&#8211;360&#176; &#183; piston up</text>
<rect x="268.5" y="174" width="72" height="25.6" fill="#8ab4f8" fill-opacity="0.34"/>
<circle cx="304.5" cy="335" r="34" fill="#2d3139" stroke="#5f6368" stroke-width="1.2"/>
<circle cx="304.5" cy="335" r="7" fill="#5f6368"/>
<line x1="304.5" y1="216.6" x2="280.9" y2="324" stroke="#80868b" stroke-width="9" stroke-linecap="round"/>
<circle cx="280.9" cy="324" r="6.5" fill="#bdc1c6"/>
<rect x="269.5" y="199.6" width="70" height="30" rx="3" fill="#3c4047" stroke="#80868b" stroke-width="1"/>
<line x1="269.5" y1="205.6" x2="339.5" y2="205.6" stroke="#1c1f25" stroke-width="2"/>
<line x1="269.5" y1="210.6" x2="339.5" y2="210.6" stroke="#1c1f25" stroke-width="2"/>
<circle cx="304.5" cy="216.6" r="5" fill="#bdc1c6"/>
<rect x="261.5" y="174" width="7" height="110" fill="#2d3139" stroke="#5f6368" stroke-width="1"/>
<rect x="340.5" y="174" width="7" height="110" fill="#2d3139" stroke="#5f6368" stroke-width="1"/>
<rect x="246.5" y="150" width="116" height="25" rx="3" fill="#2d3139" stroke="#5f6368" stroke-width="1"/>
<polygon points="242.5,131 262.5,131 292.5,174 272.5,174" fill="#1c1f25"/>
<line x1="242.5" y1="131" x2="272.5" y2="174" stroke="#5f6368" stroke-width="1.2"/>
<line x1="262.5" y1="131" x2="292.5" y2="174" stroke="#5f6368" stroke-width="1.2"/>
<rect x="281" y="125" width="3" height="47" fill="#bdc1c6"/>
<line x1="275.5" y1="125" x2="289.5" y2="125" stroke="#bdc1c6" stroke-width="2.5" stroke-linecap="round"/>
<polygon points="275.5,170 289.5,170 293.5,176 271.5,176" fill="#bdc1c6"/>
<polygon points="366.5,131 346.5,131 316.5,174 336.5,174" fill="#1c1f25"/>
<line x1="366.5" y1="131" x2="336.5" y2="174" stroke="#5f6368" stroke-width="1.2"/>
<line x1="346.5" y1="131" x2="316.5" y2="174" stroke="#5f6368" stroke-width="1.2"/>
<rect x="325" y="125" width="3" height="47" fill="#bdc1c6"/>
<line x1="319.5" y1="125" x2="333.5" y2="125" stroke="#bdc1c6" stroke-width="2.5" stroke-linecap="round"/>
<polygon points="319.5,170 333.5,170 337.5,176 315.5,176" fill="#bdc1c6"/>
<text x="237.5" y="137" font-size="12" fill="#9aa0a6" text-anchor="end" font-weight="600">IN</text>
<text x="371.5" y="137" font-size="12" fill="#9aa0a6" font-weight="600">EX</text>
<rect x="302.5" y="124" width="4" height="6" fill="#bdc1c6"/>
<rect x="299.5" y="129" width="10" height="20" rx="2" fill="#dadce0"/>
<rect x="297.5" y="148" width="14" height="24" rx="1" fill="#80868b"/>
<rect x="303" y="172" width="3" height="5" fill="#bdc1c6"/>
<path d="M 343.5,357.5 A 45 45 0 0 1 278.7,371.9" fill="none" stroke="#9aa0a6" stroke-width="1.5" marker-end="url(#fsc-as8)"/>
<path d="M368.5,250 L368.5,200" fill="none" stroke="#e8eaed" stroke-width="2.5" stroke-linecap="round" stroke-linejoin="round" marker-end="url(#fsc-at11)"/>
<text x="229" y="402" font-size="12" fill="#e8eaed"><tspan fill="#e8eaed">Intake valve: </tspan><tspan fill="#9aa0a6" font-weight="600">CLOSED</tspan></text>
<text x="229" y="421" font-size="12" fill="#e8eaed"><tspan fill="#e8eaed">Exhaust valve: </tspan><tspan fill="#9aa0a6" font-weight="600">CLOSED</tspan></text>
<rect x="406" y="70" width="179" height="364" rx="10" fill="#1c1f25" stroke="#2c3037" stroke-width="1"/>
<circle cx="428" cy="92" r="11" fill="#fbbc04"/>
<text x="428" y="96.3" font-size="12" fill="#16181d" text-anchor="middle" font-weight="700">3</text>
<text x="446" y="97" font-size="15" fill="#e8eaed" font-weight="600">Power</text>
<text x="420" y="119" font-size="12" fill="#9aa0a6">360&#8211;540&#176; &#183; piston down</text>
<rect x="459.5" y="174" width="72" height="25.6" fill="#fbbc04" fill-opacity="0.3"/>
<circle cx="495.5" cy="335" r="34" fill="#2d3139" stroke="#5f6368" stroke-width="1.2"/>
<circle cx="495.5" cy="335" r="7" fill="#5f6368"/>
<line x1="495.5" y1="216.6" x2="519.1" y2="324" stroke="#80868b" stroke-width="9" stroke-linecap="round"/>
<circle cx="519.1" cy="324" r="6.5" fill="#bdc1c6"/>
<rect x="460.5" y="199.6" width="70" height="30" rx="3" fill="#3c4047" stroke="#80868b" stroke-width="1"/>
<line x1="460.5" y1="205.6" x2="530.5" y2="205.6" stroke="#1c1f25" stroke-width="2"/>
<line x1="460.5" y1="210.6" x2="530.5" y2="210.6" stroke="#1c1f25" stroke-width="2"/>
<circle cx="495.5" cy="216.6" r="5" fill="#bdc1c6"/>
<rect x="452.5" y="174" width="7" height="110" fill="#2d3139" stroke="#5f6368" stroke-width="1"/>
<rect x="531.5" y="174" width="7" height="110" fill="#2d3139" stroke="#5f6368" stroke-width="1"/>
<rect x="437.5" y="150" width="116" height="25" rx="3" fill="#2d3139" stroke="#5f6368" stroke-width="1"/>
<polygon points="433.5,131 453.5,131 483.5,174 463.5,174" fill="#1c1f25"/>
<line x1="433.5" y1="131" x2="463.5" y2="174" stroke="#5f6368" stroke-width="1.2"/>
<line x1="453.5" y1="131" x2="483.5" y2="174" stroke="#5f6368" stroke-width="1.2"/>
<rect x="472" y="125" width="3" height="47" fill="#bdc1c6"/>
<line x1="466.5" y1="125" x2="480.5" y2="125" stroke="#bdc1c6" stroke-width="2.5" stroke-linecap="round"/>
<polygon points="466.5,170 480.5,170 484.5,176 462.5,176" fill="#bdc1c6"/>
<polygon points="557.5,131 537.5,131 507.5,174 527.5,174" fill="#1c1f25"/>
<line x1="557.5" y1="131" x2="527.5" y2="174" stroke="#5f6368" stroke-width="1.2"/>
<line x1="537.5" y1="131" x2="507.5" y2="174" stroke="#5f6368" stroke-width="1.2"/>
<rect x="516" y="125" width="3" height="47" fill="#bdc1c6"/>
<line x1="510.5" y1="125" x2="524.5" y2="125" stroke="#bdc1c6" stroke-width="2.5" stroke-linecap="round"/>
<polygon points="510.5,170 524.5,170 528.5,176 506.5,176" fill="#bdc1c6"/>
<text x="428.5" y="137" font-size="12" fill="#9aa0a6" text-anchor="end" font-weight="600">IN</text>
<text x="562.5" y="137" font-size="12" fill="#9aa0a6" font-weight="600">EX</text>
<rect x="493.5" y="124" width="4" height="6" fill="#bdc1c6"/>
<rect x="490.5" y="129" width="10" height="20" rx="2" fill="#dadce0"/>
<rect x="488.5" y="148" width="14" height="24" rx="1" fill="#80868b"/>
<rect x="494" y="172" width="3" height="5" fill="#bdc1c6"/>
<path d="M 534.5,357.5 A 45 45 0 0 1 469.7,371.9" fill="none" stroke="#9aa0a6" stroke-width="1.5" marker-end="url(#fsc-as8)"/>
<path d="M559.5,200 L559.5,250" fill="none" stroke="#e8eaed" stroke-width="2.5" stroke-linecap="round" stroke-linejoin="round" marker-end="url(#fsc-at11)"/>
<line x1="498.3" y1="183.1" x2="502.9" y2="185.1" stroke="#fbbc04" stroke-width="1.6" stroke-linecap="round"/>
<line x1="496.6" y1="184.8" x2="498.6" y2="189.4" stroke="#fbbc04" stroke-width="1.6" stroke-linecap="round"/>
<line x1="494.4" y1="184.8" x2="492.4" y2="189.4" stroke="#fbbc04" stroke-width="1.6" stroke-linecap="round"/>
<line x1="492.7" y1="183.1" x2="488.1" y2="185.1" stroke="#fbbc04" stroke-width="1.6" stroke-linecap="round"/>
<line x1="492.7" y1="180.9" x2="488.1" y2="178.9" stroke="#fbbc04" stroke-width="1.6" stroke-linecap="round"/>
<line x1="494.4" y1="179.2" x2="492.4" y2="174.6" stroke="#fbbc04" stroke-width="1.6" stroke-linecap="round"/>
<line x1="496.6" y1="179.2" x2="498.6" y2="174.6" stroke="#fbbc04" stroke-width="1.6" stroke-linecap="round"/>
<line x1="498.3" y1="180.9" x2="502.9" y2="178.9" stroke="#fbbc04" stroke-width="1.6" stroke-linecap="round"/>
<circle cx="495.5" cy="182" r="2.4" fill="#fbbc04"/>
<path d="M470.5,180 L470.5,194" fill="none" stroke="#fbbc04" stroke-width="2" stroke-linecap="round" stroke-linejoin="round" marker-end="url(#fsc-aa7)"/>
<path d="M520.5,180 L520.5,194" fill="none" stroke="#fbbc04" stroke-width="2" stroke-linecap="round" stroke-linejoin="round" marker-end="url(#fsc-aa7)"/>
<text x="420" y="402" font-size="12" fill="#e8eaed"><tspan fill="#e8eaed">Intake valve: </tspan><tspan fill="#9aa0a6" font-weight="600">CLOSED</tspan></text>
<text x="420" y="421" font-size="12" fill="#e8eaed"><tspan fill="#e8eaed">Exhaust valve: </tspan><tspan fill="#9aa0a6" font-weight="600">CLOSED</tspan></text>
<rect x="597" y="70" width="179" height="364" rx="10" fill="#1c1f25" stroke="#2c3037" stroke-width="1"/>
<circle cx="619" cy="92" r="11" fill="#bdc1c6"/>
<text x="619" y="96.3" font-size="12" fill="#16181d" text-anchor="middle" font-weight="700">4</text>
<text x="637" y="97" font-size="15" fill="#e8eaed" font-weight="600">Exhaust</text>
<text x="611" y="119" font-size="12" fill="#9aa0a6">540&#8211;720&#176; &#183; piston up</text>
<rect x="650.5" y="174" width="72" height="47.5" fill="#bdc1c6" fill-opacity="0.2"/>
<circle cx="686.5" cy="335" r="34" fill="#2d3139" stroke="#5f6368" stroke-width="1.2"/>
<circle cx="686.5" cy="335" r="7" fill="#5f6368"/>
<line x1="686.5" y1="238.5" x2="662.9" y2="346" stroke="#80868b" stroke-width="9" stroke-linecap="round"/>
<circle cx="662.9" cy="346" r="6.5" fill="#bdc1c6"/>
<rect x="651.5" y="221.5" width="70" height="30" rx="3" fill="#3c4047" stroke="#80868b" stroke-width="1"/>
<line x1="651.5" y1="227.5" x2="721.5" y2="227.5" stroke="#1c1f25" stroke-width="2"/>
<line x1="651.5" y1="232.5" x2="721.5" y2="232.5" stroke="#1c1f25" stroke-width="2"/>
<circle cx="686.5" cy="238.5" r="5" fill="#bdc1c6"/>
<rect x="643.5" y="174" width="7" height="110" fill="#2d3139" stroke="#5f6368" stroke-width="1"/>
<rect x="722.5" y="174" width="7" height="110" fill="#2d3139" stroke="#5f6368" stroke-width="1"/>
<rect x="628.5" y="150" width="116" height="25" rx="3" fill="#2d3139" stroke="#5f6368" stroke-width="1"/>
<polygon points="624.5,131 644.5,131 674.5,174 654.5,174" fill="#1c1f25"/>
<line x1="624.5" y1="131" x2="654.5" y2="174" stroke="#5f6368" stroke-width="1.2"/>
<line x1="644.5" y1="131" x2="674.5" y2="174" stroke="#5f6368" stroke-width="1.2"/>
<rect x="663" y="125" width="3" height="47" fill="#bdc1c6"/>
<line x1="657.5" y1="125" x2="671.5" y2="125" stroke="#bdc1c6" stroke-width="2.5" stroke-linecap="round"/>
<polygon points="657.5,170 671.5,170 675.5,176 653.5,176" fill="#bdc1c6"/>
<polygon points="748.5,131 728.5,131 698.5,174 718.5,174" fill="#1c1f25"/>
<polygon points="748.5,131 728.5,131 698.5,174 718.5,174" fill="#bdc1c6" fill-opacity="0.22"/>
<line x1="748.5" y1="131" x2="718.5" y2="174" stroke="#5f6368" stroke-width="1.2"/>
<line x1="728.5" y1="131" x2="698.5" y2="174" stroke="#5f6368" stroke-width="1.2"/>
<rect x="707" y="135" width="3" height="47" fill="#bdc1c6"/>
<line x1="701.5" y1="135" x2="715.5" y2="135" stroke="#bdc1c6" stroke-width="2.5" stroke-linecap="round"/>
<polygon points="701.5,180 715.5,180 719.5,186 697.5,186" fill="#bdc1c6"/>
<text x="619.5" y="137" font-size="12" fill="#9aa0a6" text-anchor="end" font-weight="600">IN</text>
<text x="753.5" y="137" font-size="12" fill="#9aa0a6" font-weight="600">EX</text>
<rect x="684.5" y="124" width="4" height="6" fill="#bdc1c6"/>
<rect x="681.5" y="129" width="10" height="20" rx="2" fill="#dadce0"/>
<rect x="679.5" y="148" width="14" height="24" rx="1" fill="#80868b"/>
<rect x="685" y="172" width="3" height="5" fill="#bdc1c6"/>
<path d="M 725.5,357.5 A 45 45 0 0 1 660.7,371.9" fill="none" stroke="#9aa0a6" stroke-width="1.5" marker-end="url(#fsc-as8)"/>
<path d="M750.5,250 L750.5,200" fill="none" stroke="#e8eaed" stroke-width="2.5" stroke-linecap="round" stroke-linejoin="round" marker-end="url(#fsc-at11)"/>
<path d="M694.5,212 L706.5,192" fill="none" stroke="#bdc1c6" stroke-width="2" stroke-linecap="round" stroke-linejoin="round" marker-end="url(#fsc-an8)"/>
<path d="M721.5,156 L746.5,120" fill="none" stroke="#bdc1c6" stroke-width="2.5" stroke-linecap="round" stroke-linejoin="round" marker-end="url(#fsc-an10)"/>
<text x="611" y="402" font-size="12" fill="#e8eaed"><tspan fill="#e8eaed">Intake valve: </tspan><tspan fill="#9aa0a6" font-weight="600">CLOSED</tspan></text>
<text x="611" y="421" font-size="12" fill="#e8eaed"><tspan fill="#e8eaed">Exhaust valve: </tspan><tspan fill="#81c995" font-weight="600">OPEN</tspan></text>
</svg>
